PathFileType	4	(X/Y/Z)	Kaydara																																																																																																																									
DataRate	CameraRate	NumFrames	NumMarkers	Units	OrigDataRate	OrigDataStartFrame	OrigNumFrames																																																																																																																					
30	30	7	41	mm	30	113	111																																																																																																																					
Frame#	Time	PAIB_LFHD			PAIB_RFHD			PAIB_LBHD			PAIB_RBHD			PAIB_LFTShould			PAIB_RFTShould			PAIB_LRRShould			PAIB_RRRShould			PAIB_T10			PAIB_STRN			PAIB_TRUN			PAIB_LSHO			PAIB_LUPA			PAIB_LELB			PAIB_LFRM			PAIB_LWRA			PAIB_LWRB			PAIB_LFIN			PAIB_RSHO			PAIB_RUPA			PAIB_RELB			PAIB_RFRM			PAIB_RWRA			PAIB_RWRB			PAIB_RFIN			PAIB_LFWT			PAIB_RFWT			PAIB_LBWT			PAIB_RBWT			PAIB_LTHI			PAIB_LKNE			PAIB_LSHN			PAIB_LANK			PAIB_LHEE			PAIB_LTOE			PAIB_RTHI			PAIB_RKNE			PAIB_RSHN			PAIB_RANK			PAIB_RHEE			PAIB_RTOE		
		X1	Y1	Z1	X2	Y2	Z2	X3	Y3	Z3	X4	Y4	Z4	X5	Y5	Z5	X6	Y6	Z6	X7	Y7	Z7	X8	Y8	Z8	X9	Y9	Z9	X10	Y10	Z10	X11	Y11	Z11	X12	Y12	Z12	X13	Y13	Z13	X14	Y14	Z14	X15	Y15	Z15	X16	Y16	Z16	X17	Y17	Z17	X18	Y18	Z18	X19	Y19	Z19	X20	Y20	Z20	X21	Y21	Z21	X22	Y22	Z22	X23	Y23	Z23	X24	Y24	Z24	X25	Y25	Z25	X26	Y26	Z26	X27	Y27	Z27	X28	Y28	Z28	X29	Y29	Z29	X30	Y30	Z30	X31	Y31	Z31	X32	Y32	Z32	X33	Y33	Z33	X34	Y34	Z34	X35	Y35	Z35	X36	Y36	Z36	X37	Y37	Z37	X38	Y38	Z38	X39	Y39	Z39	X40	Y40	Z40	X41	Y41	Z41
																																																																																																																												
98	3.733	251.79186	1561.47354	1989.56635	64.84627	1553.81256	1979.82193	265.92394	1567.93961	1860.90042	61.355	1568.03635	1863.78998	202.58234	1315.17242	1912.67715	82.84739	1323.81363	1880.43518	254.2905	1406.36398	1792.96417	108.44548	1421.29379	1765.18265	189.91341	1275.44083	1664.89777	141.02519	1248.06702	1920.7486	135.48227	1144.272	1919.80209	347.79312	1333.67584	1873.32428	439.43245	1124.79233	1868.21228	470.03269	1045.06142	1846.00983	389.14715	994.94843	1940.0209	250.71245	1016.72493	2003.2933	287.99648	942.97562	2003.63586	254.31442	973.8208	2062.52075	-19.25393	1371.85944	1790.87494	-92.85042	1309.04419	1638.65891	-151.29117	1244.00078	1560.66833	-215.69757	1128.13232	1507.46841	-222.35001	979.18991	1543.57254	-271.44598	1013.33977	1481.34766	-299.16965	959.76418	1527.39792	284.37296	886.36185	1826.02097	51.53349	893.1498	1844.40063	192.53729	938.48854	1617.12936	52.63731	932.42279	1633.70483	241.32511	730.33974	1564.99176	285.75081	463.71872	1557.05292	255.43097	279.06256	1505.57465	238.60569	133.06768	1357.96585	175.96443	138.62872	1318.54111	239.14026	39.11095	1507.22397	8.41344	626.82533	1765.56213	2.92081	460.42835	1976.40198	61.0735	300.58378	2068.75366	37.61139	81.86062	2065.63873	103.43421	70.4573	2033.83118	45.59031	136.21536	2258.13705
99	3.767	244.59106	1545.70053	2066.49445	58.12407	1537.90359	2055.96771	258.79374	1549.99466	1937.59857	54.1759	1550.49164	1940.31754	193.77722	1298.06458	1994.75372	76.37252	1306.18454	1956.69998	250.82674	1388.94409	1875.31952	107.55175	1403.10013	1841.60492	191.61594	1255.70908	1746.61911	132.92549	1229.88754	2000.02441	128.72747	1125.90141	1998.70056	340.33394	1319.65042	1961.33316	443.68904	1118.13141	1962.0665	474.65706	1038.02788	1943.68698	383.37219	1010.08858	2038.04428	245.12787	1056.4164	2087.99469	278.09919	985.54008	2107.90909	238.75544	1020.64674	2152.31201	-18.22208	1359.48776	1861.24237	-83.45936	1308.01865	1704.68094	-144.13404	1252.35535	1620.40634	-216.23106	1143.31352	1560.85907	-239.24234	994.66545	1594.25217	-280.92447	1033.8147	1529.48013	-316.45641	982.43141	1572.78961	288.09559	866.24123	1900.94254	56.27737	873.59802	1927.31094	184.10114	919.17747	1695.46356	47.93571	912.71446	1716.23001	233.50142	719.91341	1637.54974	288.55532	456.99146	1610.45807	260.12499	277.82854	1539.41101	242.7557	150.42507	1375.93079	179.53825	160.45845	1337.94357	240.14896	38.8834	1508.40805	7.21195	608.91209	1854.92264	5.91162	453.43201	2075.84839	64.33091	298.42148	2172.35336	40.48931	80.18245	2181.93909	106.11143	65.03136	2149.47769	55.46471	150.96024	2368.06763
100	3.8	236.89907	1532.84637	2145.44678	50.41698	1523.55225	2135.71609	250.24471	1536.29257	2016.23001	45.43607	1535.25162	2020.2092	185.77339	1282.31018	2079.71268	69.39458	1289.75128	2037.798	245.90456	1374.02679	1961.78116	103.54963	1387.39395	1923.87558	190.96842	1240.12535	1831.33209	125.51736	1213.88588	2084.00955	122.91773	1109.7374	2082.92236	333.40439	1306.45172	2049.84818	448.88279	1114.04762	2045.77728	479.15642	1033.46817	2028.79913	383.05523	1018.72536	2122.20612	246.31067	1077.05589	2163.04001	275.12213	1001.71432	2197.19803	233.80009	1046.44669	2229.02145	-20.16323	1344.86801	1939.87213	-81.70763	1298.41492	1781.57104	-142.11474	1246.87416	1694.86923	-217.8373	1142.10251	1631.69815	-249.00782	994.15482	1662.92175	-287.14319	1035.67307	1597.57843	-326.2254	985.6675	1639.30618	290.61518	848.46275	1984.0506	58.23684	861.95999	2012.65961	183.02658	904.20151	1779.26056	46.673	900.41908	1801.39679	228.86618	707.56058	1719.2276	292.83335	449.83589	1676.35651	265.16199	278.0604	1585.05737	250.28843	173.31459	1405.53131	187.35031	189.08207	1369.25156	240.96319	39.10437	1510.10437	1.79494	600.51189	1944.21906	10.61082	443.95756	2161.25778	74.77025	274.75723	2242.80838	55.43122	54.91785	2226.82953	118.70681	45.82284	2196.14136	61.43695	110.0334	2413.05222
101	3.833	229.93931	1527.29889	2225.45319	44.03886	1518.05786	2220.53543	241.25685	1529.94949	2096.6832	36.52938	1528.61008	2105.27863	180.1417	1272.91107	2168.31726	63.52312	1277.86903	2123.5675	239.02893	1366.87546	2049.14047	95.16871	1376.86172	2009.83673	187.45407	1231.56532	1919.32434	120.6594	1203.17642	2171.09024	119.74086	1099.04556	2169.5639	328.49007	1299.11026	2137.30637	449.59713	1111.30875	2119.9527	481.3179	1032.82082	2098.05481	386.89934	1013.44223	2191.9487	249.85329	1068.44536	2236.74271	277.3938	985.94246	2266.49323	238.05323	1035.89783	2301.539	-26.16075	1330.09705	2024.91577	-87.98326	1280.81329	1867.48978	-147.78005	1226.67099	1782.05185	-222.79097	1122.09908	1719.20883	-253.52394	974.14848	1749.51965	-292.12391	1016.09489	1685.02197	-330.47791	965.48729	1726.84769	285.51916	835.84282	2067.69119	53.5327	853.88672	2089.54117	185.55202	894.15977	1859.68658	46.4725	897.985	1878.02979	228.82383	692.49107	1803.38959	297.7619	433.63735	1766.68289	272.15532	275.05709	1650.9491	262.80001	201.02022	1457.08603	200.8604	226.10878	1424.34799	240.68439	39.91778	1507.17392	0.44436	596.93043	2021.86066	4.125	444.04881	2241.41006	74.9503	270.34454	2305.37888	47.78652	57.79263	2258.68378	112.60851	58.70334	2218.25302	65.70678	60.57903	2455.40802
102	3.867	224.85476	1527.07687	2308.29834	38.97412	1515.95474	2304.19434	235.59839	1526.70624	2179.28345	30.78604	1523.60031	2188.59604	177.43738	1267.79861	2252.41531	62.8125	1271.51291	2209.85886	234.37534	1367.69623	2137.7478	87.93314	1375.83725	2098.2579	185.2799	1237.40791	2000.63263	119.80116	1197.12395	2253.90335	119.64114	1092.79434	2249.34982	323.78494	1297.26563	2223.9566	445.55431	1110.43091	2184.10217	479.62635	1036.44737	2152.56439	393.14583	995.36392	2247.18155	254.62214	1031.49742	2307.02271	289.16037	950.46074	2317.27615	252.49647	988.1115	2367.07809	-33.42146	1318.23746	2115.19455	-99.21995	1259.81171	1961.98532	-157.76307	1199.0638	1879.64249	-228.71958	1089.3042	1822.25113	-249.03099	940.68108	1855.40329	-292.66359	979.2997	1792.38358	-326.11935	927.78275	1836.77917	277.3444	833.63068	2146.61972	45.13213	861.58012	2162.32758	193.68841	890.46684	1934.23035	52.71957	899.12788	1947.68097	235.24588	668.9061	1890.00275	299.61708	401.19442	1889.45786	271.82495	270.51275	1749.43222	272.59052	233.03629	1544.9115	216.08501	272.0182	1515.7019	245.50163	44.81235	1548.06137	-7.83371	604.09012	2094.6402	-2.68516	452.79762	2316.68121	72.58066	268.28484	2347.43118	52.83391	61.89548	2265.8519	113.63299	65.43071	2226.97861	65.71327	38.23132	2457.54623
103	3.9	223.33508	1531.55762	2389.38156	37.59232	1519.35638	2387.54486	232.26721	1533.0307	2260.08881	27.73215	1528.59833	2272.27829	182.9546	1271.32034	2327.2641	63.7003	1274.24828	2290.26199	230.389	1377.59491	2211.62964	80.56341	1381.8248	2179.73297	177.21674	1248.12271	2075.17532	125.12475	1200.17944	2330.40115	125.91964	1095.95848	2323.30887	326.0297	1304.87396	2292.07367	437.13711	1112.82776	2240.58792	475.68184	1045.93704	2200.85236	404.62776	976.55289	2290.60211	267.9723	975.79124	2362.50046	314.66885	907.50961	2351.02539	282.31892	924.80972	2415.48096	-39.54652	1314.4101	2203.03177	-112.62786	1241.97227	2057.6944	-168.94268	1171.61209	1981.94977	-231.99488	1052.05711	1936.90399	-232.28951	904.963	1978.76007	-285.45086	934.95651	1918.51883	-308.8323	883.06885	1968.83804	270.75588	841.29288	2223.25653	37.26128	870.24429	2230.95123	196.51882	893.09006	2004.30115	55.38188	908.03658	2016.32492	243.9484	645.44449	1986.08826	299.133	383.40919	2027.54364	265.93222	267.80416	1872.77435	272.84088	259.63705	1665.61707	216.96457	301.61205	1638.23639	249.25398	76.98293	1652.31125	-4.41371	607.77245	2146.30829	-6.97065	435.4554	2348.40485	71.95262	254.98531	2372.48993	56.28177	61.32484	2269.45282	115.71033	67.57281	2230.75272	70.83476	31.48177	2467.89276
104	3.933	224.46867	1541.43509	2467.42233	38.75051	1529.93469	2466.4505	232.44902	1545.39383	2337.93549	28.15969	1541.56937	2351.40839	187.85278	1286.58386	2397.79129	68.31038	1286.22513	2368.31314	226.32803	1392.46216	2281.0228	75.28306	1393.91647	2257.22748	168.34732	1264.03801	2145.74829	132.26247	1213.1575	2403.10211	134.08236	1109.09508	2394.8703	329.6196	1321.11221	2353.22861	431.07094	1126.17508	2286.46164	468.27656	1061.4061	2239.57657	423.42331	964.48235	2319.22714	299.01218	918.18993	2397.63184	356.32797	867.57355	2367.39532	329.76433	862.9763	2437.05017	-41.98008	1319.2662	2286.26587	-124.59204	1227.87468	2152.43286	-177.97121	1146.00311	2088.18344	-228.8065	1015.76546	2060.50766	-203.62749	876.63681	2113.85498	-267.24432	893.63518	2058.10349	-277.42126	844.48212	2115.11627	266.11595	854.99397	2294.3866	31.00296	882.53777	2298.17917	200.10927	904.18411	2076.50406	59.04222	924.94316	2084.31915	246.18301	636.94096	2088.15033	301.88721	384.30573	2167.84714	264.59364	271.03212	2015.93719	267.89469	265.10372	1808.9299	211.2896	305.9404	1780.41992	251.26766	85.3342	1813.38028	-4.17385	617.7018	2193.17444	-5.75375	428.9864	2385.66711	71.38333	247.08071	2390.11139	56.12629	62.79855	2274.42032	117.24921	70.1174	2234.18655	73.4202	32.3843	2463.11203
